<svg width="214" height="118" viewBox="0 0 214 118" fill="none" xmlns="http://www.w3.org/2000/svg">
<g filter="url(#filter0_dd_125_380)">
<path d="M60.8638 52.64C60.9491 52.9813 60.9918 53.408 60.9918 53.92C60.9918 54.4107 60.9491 54.8373 60.8638 55.2C60.9491 55.5413 60.9918 55.968 60.9918 56.48C60.9918 56.9707 60.9491 57.3973 60.8638 57.76C60.9491 58.1013 60.9918 58.528 60.9918 59.04C60.9918 59.5307 60.9491 59.9573 60.8638 60.32C60.9491 60.6613 60.9918 61.088 60.9918 61.6C60.9918 62.0907 60.9491 62.5173 60.8638 62.88C60.9491 63.2213 60.9918 63.648 60.9918 64.16C60.9918 64.6507 60.9491 65.0773 60.8638 65.44C60.9491 65.7813 60.9918 66.208 60.9918 66.72C60.9918 67.2107 60.9491 67.6373 60.8638 68H58.3038C58.2184 67.6373 58.1758 67.2107 58.1758 66.72C58.1758 66.208 58.2184 65.7813 58.3038 65.44C58.2184 65.0773 58.1758 64.6507 58.1758 64.16C58.1758 63.648 58.2184 63.2213 58.3038 62.88C58.2184 62.5173 58.1758 62.0907 58.1758 61.6C58.1758 61.088 58.2184 60.6613 58.3038 60.32C58.2184 59.9573 58.1758 59.5307 58.1758 59.04C58.1758 58.528 58.2184 58.1013 58.3038 57.76C58.2184 57.3973 58.1758 56.9707 58.1758 56.48C58.1758 55.968 58.2184 55.5413 58.3038 55.2H57.3438C57.4291 55.5413 57.4718 55.968 57.4718 56.48C57.4718 56.9707 57.4291 57.3973 57.3438 57.76C57.4291 58.1013 57.4718 58.528 57.4718 59.04C57.4718 59.5307 57.4291 59.9573 57.3438 60.32H56.7038C56.7891 60.6613 56.8318 61.088 56.8318 61.6C56.8318 62.0907 56.7891 62.5173 56.7038 62.88C56.7891 63.2213 56.8318 63.648 56.8318 64.16C56.8318 64.6507 56.7891 65.0773 56.7038 65.44H54.7838C54.6984 65.0773 54.6558 64.6507 54.6558 64.16C54.6558 63.648 54.6984 63.2213 54.7838 62.88C54.6984 62.5173 54.6558 62.0907 54.6558 61.6C54.6558 61.088 54.6984 60.6613 54.7838 60.32H54.1438C54.0584 59.9573 54.0158 59.5307 54.0158 59.04C54.0158 58.528 54.0584 58.1013 54.1438 57.76C54.0584 57.3973 54.0158 56.9707 54.0158 56.48C54.0158 55.968 54.0584 55.5413 54.1438 55.2H53.1838C53.2691 55.5413 53.3118 55.968 53.3118 56.48C53.3118 56.9707 53.2691 57.3973 53.1838 57.76C53.2691 58.1013 53.3118 58.528 53.3118 59.04C53.3118 59.5307 53.2691 59.9573 53.1838 60.32C53.2691 60.6613 53.3118 61.088 53.3118 61.6C53.3118 62.0907 53.2691 62.5173 53.1838 62.88C53.2691 63.2213 53.3118 63.648 53.3118 64.16C53.3118 64.6507 53.2691 65.0773 53.1838 65.44C53.2691 65.7813 53.3118 66.208 53.3118 66.72C53.3118 67.2107 53.2691 67.6373 53.1838 68H50.6238C50.5384 67.6373 50.4958 67.2107 50.4958 66.72C50.4958 66.208 50.5384 65.7813 50.6238 65.44C50.5384 65.0773 50.4958 64.6507 50.4958 64.16C50.4958 63.648 50.5384 63.2213 50.6238 62.88C50.5384 62.5173 50.4958 62.0907 50.4958 61.6C50.4958 61.088 50.5384 60.6613 50.6238 60.32C50.5384 59.9573 50.4958 59.5307 50.4958 59.04C50.4958 58.528 50.5384 58.1013 50.6238 57.76C50.5384 57.3973 50.4958 56.9707 50.4958 56.48C50.4958 55.968 50.5384 55.5413 50.6238 55.2C50.5384 54.8373 50.4958 54.4107 50.4958 53.92C50.4958 53.408 50.5384 52.9813 50.6238 52.64C50.5384 52.2773 50.4958 51.8507 50.4958 51.36C50.4958 50.848 50.5384 50.4213 50.6238 50.08H53.8238C53.9091 50.4213 53.9518 50.848 53.9518 51.36C53.9518 51.8507 53.9091 52.2773 53.8238 52.64H54.7838C54.8691 52.9813 54.9118 53.408 54.9118 53.92C54.9118 54.4107 54.8691 54.8373 54.7838 55.2H55.2638C55.3491 55.5413 55.3918 55.968 55.3918 56.48C55.3918 56.9707 55.3491 57.3973 55.2638 57.76H56.2238C56.1384 57.3973 56.0958 56.9707 56.0958 56.48C56.0958 55.968 56.1384 55.5413 56.2238 55.2H56.7038C56.6184 54.8373 56.5758 54.4107 56.5758 53.92C56.5758 53.408 56.6184 52.9813 56.7038 52.64H57.6638C57.5784 52.2773 57.5358 51.8507 57.5358 51.36C57.5358 50.848 57.5784 50.4213 57.6638 50.08H60.8638C60.9491 50.4213 60.9918 50.848 60.9918 51.36C60.9918 51.8507 60.9491 52.2773 60.8638 52.64ZM67.2763 60.32C67.3616 60.6613 67.4043 61.088 67.4043 61.6C67.4043 62.0907 67.3616 62.5173 67.2763 62.88C67.3616 63.2213 67.4043 63.648 67.4043 64.16C67.4043 64.6507 67.3616 65.0773 67.2763 65.44H72.3963C72.4816 65.7813 72.5243 66.208 72.5243 66.72C72.5243 67.2107 72.4816 67.6373 72.3963 68H64.7163C64.6309 67.6373 64.5883 67.2107 64.5883 66.72C64.5883 66.208 64.6309 65.7813 64.7163 65.44C64.6309 65.0773 64.5883 64.6507 64.5883 64.16C64.5883 63.648 64.6309 63.2213 64.7163 62.88C64.6309 62.5173 64.5883 62.0907 64.5883 61.6C64.5883 61.088 64.6309 60.6613 64.7163 60.32C64.6309 59.9573 64.5883 59.5307 64.5883 59.04C64.5883 58.528 64.6309 58.1013 64.7163 57.76C64.6309 57.3973 64.5883 56.9707 64.5883 56.48C64.5883 55.968 64.6309 55.5413 64.7163 55.2C64.6309 54.8373 64.5883 54.4107 64.5883 53.92C64.5883 53.408 64.6309 52.9813 64.7163 52.64C64.6309 52.2773 64.5883 51.8507 64.5883 51.36C64.5883 50.848 64.6309 50.4213 64.7163 50.08H72.3963C72.4816 50.4213 72.5243 50.848 72.5243 51.36C72.5243 51.8507 72.4816 52.2773 72.3963 52.64H67.2763C67.3616 52.9813 67.4043 53.408 67.4043 53.92C67.4043 54.4107 67.3616 54.8373 67.2763 55.2C67.3616 55.5413 67.4043 55.968 67.4043 56.48C67.4043 56.9707 67.3616 57.3973 67.2763 57.76H72.3963C72.4816 58.1013 72.5243 58.528 72.5243 59.04C72.5243 59.5307 72.4816 59.9573 72.3963 60.32H67.2763ZM86.6168 51.36C86.6168 51.8507 86.5741 52.2773 86.4888 52.64H82.6488C82.7341 52.9813 82.7768 53.408 82.7768 53.92C82.7768 54.4107 82.7341 54.8373 82.6488 55.2C82.7341 55.5413 82.7768 55.968 82.7768 56.48C82.7768 56.9707 82.7341 57.3973 82.6488 57.76C82.7341 58.1013 82.7768 58.528 82.7768 59.04C82.7768 59.5307 82.7341 59.9573 82.6488 60.32C82.7341 60.6613 82.7768 61.088 82.7768 61.6C82.7768 62.0907 82.7341 62.5173 82.6488 62.88C82.7341 63.2213 82.7768 63.648 82.7768 64.16C82.7768 64.6507 82.7341 65.0773 82.6488 65.44C82.7341 65.7813 82.7768 66.208 82.7768 66.72C82.7768 67.2107 82.7341 67.6373 82.6488 68H80.0888C80.0034 67.6373 79.9608 67.2107 79.9608 66.72C79.9608 66.208 80.0034 65.7813 80.0888 65.44C80.0034 65.0773 79.9608 64.6507 79.9608 64.16C79.9608 63.648 80.0034 63.2213 80.0888 62.88C80.0034 62.5173 79.9608 62.0907 79.9608 61.6C79.9608 61.088 80.0034 60.6613 80.0888 60.32C80.0034 59.9573 79.9608 59.5307 79.9608 59.04C79.9608 58.528 80.0034 58.1013 80.0888 57.76C80.0034 57.3973 79.9608 56.9707 79.9608 56.48C79.9608 55.968 80.0034 55.5413 80.0888 55.2C80.0034 54.8373 79.9608 54.4107 79.9608 53.92C79.9608 53.408 80.0034 52.9813 80.0888 52.64H76.2488C76.1634 52.2773 76.1208 51.8507 76.1208 51.36C76.1208 50.848 76.1634 50.4213 76.2488 50.08H86.4888C86.5741 50.4213 86.6168 50.848 86.6168 51.36ZM99.4293 64.16C99.4293 64.6507 99.3866 65.0773 99.3013 65.44C99.3866 65.7813 99.4293 66.208 99.4293 66.72C99.4293 67.2107 99.3866 67.6373 99.3013 68H96.7413C96.6559 67.6373 96.6133 67.2107 96.6133 66.72C96.6133 66.208 96.6559 65.7813 96.7413 65.44C96.6559 65.0773 96.6133 64.6507 96.6133 64.16C96.6133 63.648 96.6559 63.2213 96.7413 62.88H91.6213C91.7066 63.2213 91.7493 63.648 91.7493 64.16C91.7493 64.6507 91.7066 65.0773 91.6213 65.44C91.7066 65.7813 91.7493 66.208 91.7493 66.72C91.7493 67.2107 91.7066 67.6373 91.6213 68H89.0613C88.9759 67.6373 88.9333 67.2107 88.9333 66.72C88.9333 66.208 88.9759 65.7813 89.0613 65.44C88.9759 65.0773 88.9333 64.6507 88.9333 64.16C88.9333 63.648 88.9759 63.2213 89.0613 62.88H90.0213C89.9359 62.5173 89.8932 62.0907 89.8932 61.6C89.8932 61.088 89.9359 60.6613 90.0213 60.32C89.9359 59.9573 89.8932 59.5307 89.8932 59.04C89.8932 58.528 89.9359 58.1013 90.0213 57.76H90.6613C90.5759 57.3973 90.5333 56.9707 90.5333 56.48C90.5333 55.968 90.5759 55.5413 90.6613 55.2H91.6213C91.5359 54.8373 91.4933 54.4107 91.4933 53.92C91.4933 53.408 91.5359 52.9813 91.6213 52.64H92.2613C92.1759 52.2773 92.1333 51.8507 92.1333 51.36C92.1333 50.848 92.1759 50.4213 92.2613 50.08H96.1013C96.1866 50.4213 96.2292 50.848 96.2292 51.36C96.2292 51.8507 96.1866 52.2773 96.1013 52.64H96.7413C96.8266 52.9813 96.8693 53.408 96.8693 53.92C96.8693 54.4107 96.8266 54.8373 96.7413 55.2H97.7013C97.7866 55.5413 97.8293 55.968 97.8293 56.48C97.8293 56.9707 97.7866 57.3973 97.7013 57.76H98.3413C98.4266 58.1013 98.4693 58.528 98.4693 59.04C98.4693 59.5307 98.4266 59.9573 98.3413 60.32C98.4266 60.6613 98.4693 61.088 98.4693 61.6C98.4693 62.0907 98.4266 62.5173 98.3413 62.88H99.3013C99.3866 63.2213 99.4293 63.648 99.4293 64.16ZM95.7812 60.32C95.6959 59.9573 95.6533 59.5307 95.6533 59.04C95.6533 58.528 95.6959 58.1013 95.7812 57.76H95.1413C95.0559 57.3973 95.0133 56.9707 95.0133 56.48C95.0133 55.968 95.0559 55.5413 95.1413 55.2H93.2213C93.3066 55.5413 93.3493 55.968 93.3493 56.48C93.3493 56.9707 93.3066 57.3973 93.2213 57.76H92.5813C92.6666 58.1013 92.7093 58.528 92.7093 59.04C92.7093 59.5307 92.6666 59.9573 92.5813 60.32H95.7812ZM124.926 52.64C125.012 52.9813 125.054 53.408 125.054 53.92C125.054 54.4107 125.012 54.8373 124.926 55.2C125.012 55.5413 125.054 55.968 125.054 56.48C125.054 56.9707 125.012 57.3973 124.926 57.76C125.012 58.1013 125.054 58.528 125.054 59.04C125.054 59.5307 125.012 59.9573 124.926 60.32C125.012 60.6613 125.054 61.088 125.054 61.6C125.054 62.0907 125.012 62.5173 124.926 62.88C125.012 63.2213 125.054 63.648 125.054 64.16C125.054 64.6507 125.012 65.0773 124.926 65.44C125.012 65.7813 125.054 66.208 125.054 66.72C125.054 67.2107 125.012 67.6373 124.926 68H122.366C122.281 67.6373 122.238 67.2107 122.238 66.72C122.238 66.208 122.281 65.7813 122.366 65.44C122.281 65.0773 122.238 64.6507 122.238 64.16C122.238 63.648 122.281 63.2213 122.366 62.88C122.281 62.5173 122.238 62.0907 122.238 61.6C122.238 61.088 122.281 60.6613 122.366 60.32C122.281 59.9573 122.238 59.5307 122.238 59.04C122.238 58.528 122.281 58.1013 122.366 57.76C122.281 57.3973 122.238 56.9707 122.238 56.48C122.238 55.968 122.281 55.5413 122.366 55.2H121.406C121.492 55.5413 121.534 55.968 121.534 56.48C121.534 56.9707 121.492 57.3973 121.406 57.76C121.492 58.1013 121.534 58.528 121.534 59.04C121.534 59.5307 121.492 59.9573 121.406 60.32H120.766C120.852 60.6613 120.894 61.088 120.894 61.6C120.894 62.0907 120.852 62.5173 120.766 62.88C120.852 63.2213 120.894 63.648 120.894 64.16C120.894 64.6507 120.852 65.0773 120.766 65.44H118.846C118.761 65.0773 118.718 64.6507 118.718 64.16C118.718 63.648 118.761 63.2213 118.846 62.88C118.761 62.5173 118.718 62.0907 118.718 61.6C118.718 61.088 118.761 60.6613 118.846 60.32H118.206C118.121 59.9573 118.078 59.5307 118.078 59.04C118.078 58.528 118.121 58.1013 118.206 57.76C118.121 57.3973 118.078 56.9707 118.078 56.48C118.078 55.968 118.121 55.5413 118.206 55.2H117.246C117.332 55.5413 117.374 55.968 117.374 56.48C117.374 56.9707 117.332 57.3973 117.246 57.76C117.332 58.1013 117.374 58.528 117.374 59.04C117.374 59.5307 117.332 59.9573 117.246 60.32C117.332 60.6613 117.374 61.088 117.374 61.6C117.374 62.0907 117.332 62.5173 117.246 62.88C117.332 63.2213 117.374 63.648 117.374 64.16C117.374 64.6507 117.332 65.0773 117.246 65.44C117.332 65.7813 117.374 66.208 117.374 66.72C117.374 67.2107 117.332 67.6373 117.246 68H114.686C114.601 67.6373 114.558 67.2107 114.558 66.72C114.558 66.208 114.601 65.7813 114.686 65.44C114.601 65.0773 114.558 64.6507 114.558 64.16C114.558 63.648 114.601 63.2213 114.686 62.88C114.601 62.5173 114.558 62.0907 114.558 61.6C114.558 61.088 114.601 60.6613 114.686 60.32C114.601 59.9573 114.558 59.5307 114.558 59.04C114.558 58.528 114.601 58.1013 114.686 57.76C114.601 57.3973 114.558 56.9707 114.558 56.48C114.558 55.968 114.601 55.5413 114.686 55.2C114.601 54.8373 114.558 54.4107 114.558 53.92C114.558 53.408 114.601 52.9813 114.686 52.64C114.601 52.2773 114.558 51.8507 114.558 51.36C114.558 50.848 114.601 50.4213 114.686 50.08H117.886C117.972 50.4213 118.014 50.848 118.014 51.36C118.014 51.8507 117.972 52.2773 117.886 52.64H118.846C118.932 52.9813 118.974 53.408 118.974 53.92C118.974 54.4107 118.932 54.8373 118.846 55.2H119.326C119.412 55.5413 119.454 55.968 119.454 56.48C119.454 56.9707 119.412 57.3973 119.326 57.76H120.286C120.201 57.3973 120.158 56.9707 120.158 56.48C120.158 55.968 120.201 55.5413 120.286 55.2H120.766C120.681 54.8373 120.638 54.4107 120.638 53.92C120.638 53.408 120.681 52.9813 120.766 52.64H121.726C121.641 52.2773 121.598 51.8507 121.598 51.36C121.598 50.848 121.641 50.4213 121.726 50.08H124.926C125.012 50.4213 125.054 50.848 125.054 51.36C125.054 51.8507 125.012 52.2773 124.926 52.64ZM137.867 64.16C137.867 64.6507 137.824 65.0773 137.739 65.44C137.824 65.7813 137.867 66.208 137.867 66.72C137.867 67.2107 137.824 67.6373 137.739 68H135.179C135.093 67.6373 135.051 67.2107 135.051 66.72C135.051 66.208 135.093 65.7813 135.179 65.44C135.093 65.0773 135.051 64.6507 135.051 64.16C135.051 63.648 135.093 63.2213 135.179 62.88H130.059C130.144 63.2213 130.187 63.648 130.187 64.16C130.187 64.6507 130.144 65.0773 130.059 65.44C130.144 65.7813 130.187 66.208 130.187 66.72C130.187 67.2107 130.144 67.6373 130.059 68H127.499C127.413 67.6373 127.371 67.2107 127.371 66.72C127.371 66.208 127.413 65.7813 127.499 65.44C127.413 65.0773 127.371 64.6507 127.371 64.16C127.371 63.648 127.413 63.2213 127.499 62.88H128.459C128.373 62.5173 128.331 62.0907 128.331 61.6C128.331 61.088 128.373 60.6613 128.459 60.32C128.373 59.9573 128.331 59.5307 128.331 59.04C128.331 58.528 128.373 58.1013 128.459 57.76H129.099C129.013 57.3973 128.971 56.9707 128.971 56.48C128.971 55.968 129.013 55.5413 129.099 55.2H130.059C129.973 54.8373 129.931 54.4107 129.931 53.92C129.931 53.408 129.973 52.9813 130.059 52.64H130.699C130.613 52.2773 130.571 51.8507 130.571 51.36C130.571 50.848 130.613 50.4213 130.699 50.08H134.539C134.624 50.4213 134.667 50.848 134.667 51.36C134.667 51.8507 134.624 52.2773 134.539 52.64H135.179C135.264 52.9813 135.307 53.408 135.307 53.92C135.307 54.4107 135.264 54.8373 135.179 55.2H136.139C136.224 55.5413 136.267 55.968 136.267 56.48C136.267 56.9707 136.224 57.3973 136.139 57.76H136.779C136.864 58.1013 136.907 58.528 136.907 59.04C136.907 59.5307 136.864 59.9573 136.779 60.32C136.864 60.6613 136.907 61.088 136.907 61.6C136.907 62.0907 136.864 62.5173 136.779 62.88H137.739C137.824 63.2213 137.867 63.648 137.867 64.16ZM134.219 60.32C134.133 59.9573 134.091 59.5307 134.091 59.04C134.091 58.528 134.133 58.1013 134.219 57.76H133.579C133.493 57.3973 133.451 56.9707 133.451 56.48C133.451 55.968 133.493 55.5413 133.579 55.2H131.659C131.744 55.5413 131.787 55.968 131.787 56.48C131.787 56.9707 131.744 57.3973 131.659 57.76H131.019C131.104 58.1013 131.147 58.528 131.147 59.04C131.147 59.5307 131.104 59.9573 131.019 60.32H134.219ZM150.551 60.32C150.637 60.6613 150.679 61.088 150.679 61.6C150.679 62.0907 150.637 62.5173 150.551 62.88C150.637 63.2213 150.679 63.648 150.679 64.16C150.679 64.6507 150.637 65.0773 150.551 65.44H149.271C149.357 65.7813 149.399 66.208 149.399 66.72C149.399 67.2107 149.357 67.6373 149.271 68H141.591C141.506 67.6373 141.463 67.2107 141.463 66.72C141.463 66.208 141.506 65.7813 141.591 65.44H140.311C140.226 65.0773 140.183 64.6507 140.183 64.16C140.183 63.648 140.226 63.2213 140.311 62.88H142.871C142.957 63.2213 142.999 63.648 142.999 64.16C142.999 64.6507 142.957 65.0773 142.871 65.44H147.991C147.906 65.0773 147.863 64.6507 147.863 64.16C147.863 63.648 147.906 63.2213 147.991 62.88C147.906 62.5173 147.863 62.0907 147.863 61.6C147.863 61.088 147.906 60.6613 147.991 60.32H141.591C141.506 59.9573 141.463 59.5307 141.463 59.04C141.463 58.528 141.506 58.1013 141.591 57.76H140.311C140.226 57.3973 140.183 56.9707 140.183 56.48C140.183 55.968 140.226 55.5413 140.311 55.2C140.226 54.8373 140.183 54.4107 140.183 53.92C140.183 53.408 140.226 52.9813 140.311 52.64H141.591C141.506 52.2773 141.463 51.8507 141.463 51.36C141.463 50.848 141.506 50.4213 141.591 50.08H149.271C149.357 50.4213 149.399 50.848 149.399 51.36C149.399 51.8507 149.357 52.2773 149.271 52.64H150.551C150.637 52.9813 150.679 53.408 150.679 53.92C150.679 54.4107 150.637 54.8373 150.551 55.2H147.991C147.906 54.8373 147.863 54.4107 147.863 53.92C147.863 53.408 147.906 52.9813 147.991 52.64H142.871C142.957 52.9813 142.999 53.408 142.999 53.92C142.999 54.4107 142.957 54.8373 142.871 55.2C142.957 55.5413 142.999 55.968 142.999 56.48C142.999 56.9707 142.957 57.3973 142.871 57.76H149.271C149.357 58.1013 149.399 58.528 149.399 59.04C149.399 59.5307 149.357 59.9573 149.271 60.32H150.551ZM163.364 65.44C163.449 65.7813 163.492 66.208 163.492 66.72C163.492 67.2107 163.449 67.6373 163.364 68H160.804C160.718 67.6373 160.676 67.2107 160.676 66.72C160.676 66.208 160.718 65.7813 160.804 65.44H159.844C159.758 65.0773 159.716 64.6507 159.716 64.16C159.716 63.648 159.758 63.2213 159.844 62.88H157.924C157.838 62.5173 157.796 62.0907 157.796 61.6C157.796 61.088 157.838 60.6613 157.924 60.32H155.684C155.769 60.6613 155.812 61.088 155.812 61.6C155.812 62.0907 155.769 62.5173 155.684 62.88C155.769 63.2213 155.812 63.648 155.812 64.16C155.812 64.6507 155.769 65.0773 155.684 65.44C155.769 65.7813 155.812 66.208 155.812 66.72C155.812 67.2107 155.769 67.6373 155.684 68H153.124C153.038 67.6373 152.996 67.2107 152.996 66.72C152.996 66.208 153.038 65.7813 153.124 65.44C153.038 65.0773 152.996 64.6507 152.996 64.16C152.996 63.648 153.038 63.2213 153.124 62.88C153.038 62.5173 152.996 62.0907 152.996 61.6C152.996 61.088 153.038 60.6613 153.124 60.32C153.038 59.9573 152.996 59.5307 152.996 59.04C152.996 58.528 153.038 58.1013 153.124 57.76C153.038 57.3973 152.996 56.9707 152.996 56.48C152.996 55.968 153.038 55.5413 153.124 55.2C153.038 54.8373 152.996 54.4107 152.996 53.92C152.996 53.408 153.038 52.9813 153.124 52.64C153.038 52.2773 152.996 51.8507 152.996 51.36C152.996 50.848 153.038 50.4213 153.124 50.08H155.684C155.769 50.4213 155.812 50.848 155.812 51.36C155.812 51.8507 155.769 52.2773 155.684 52.64C155.769 52.9813 155.812 53.408 155.812 53.92C155.812 54.4107 155.769 54.8373 155.684 55.2C155.769 55.5413 155.812 55.968 155.812 56.48C155.812 56.9707 155.769 57.3973 155.684 57.76H157.924C157.838 57.3973 157.796 56.9707 157.796 56.48C157.796 55.968 157.838 55.5413 157.924 55.2H159.844C159.758 54.8373 159.716 54.4107 159.716 53.92C159.716 53.408 159.758 52.9813 159.844 52.64H160.804C160.718 52.2773 160.676 51.8507 160.676 51.36C160.676 50.848 160.718 50.4213 160.804 50.08H163.364C163.449 50.4213 163.492 50.848 163.492 51.36C163.492 51.8507 163.449 52.2773 163.364 52.64H162.404C162.489 52.9813 162.532 53.408 162.532 53.92C162.532 54.4107 162.489 54.8373 162.404 55.2H160.484C160.569 55.5413 160.612 55.968 160.612 56.48C160.612 56.9707 160.569 57.3973 160.484 57.76H158.884C158.969 58.1013 159.012 58.528 159.012 59.04C159.012 59.5307 158.969 59.9573 158.884 60.32H160.484C160.569 60.6613 160.612 61.088 160.612 61.6C160.612 62.0907 160.569 62.5173 160.484 62.88H162.404C162.489 63.2213 162.532 63.648 162.532 64.16C162.532 64.6507 162.489 65.0773 162.404 65.44H163.364Z" fill="#F1F1F1"/>
</g>
<defs>
<filter id="filter0_dd_125_380" x="0.496094" y="0.0800781" width="212.996" height="117.92" filterUnits="userSpaceOnUse" color-interpolation-filters="sRGB">
<feFlood flood-opacity="0" result="BackgroundImageFix"/>
<feColorMatrix in="SourceAlpha" type="matrix" values="0 0 0 0 0 0 0 0 0 0 0 0 0 0 0 0 0 0 127 0" result="hardAlpha"/>
<feOffset/>
<feGaussianBlur stdDeviation="8"/>
<feComposite in2="hardAlpha" operator="out"/>
<feColorMatrix type="matrix" values="0 0 0 0 0.945098 0 0 0 0 0.945098 0 0 0 0 0.945098 0 0 0 1 0"/>
<feBlend mode="normal" in2="BackgroundImageFix" result="effect1_dropShadow_125_380"/>
<feColorMatrix in="SourceAlpha" type="matrix" values="0 0 0 0 0 0 0 0 0 0 0 0 0 0 0 0 0 0 127 0" result="hardAlpha"/>
<feOffset/>
<feGaussianBlur stdDeviation="25"/>
<feComposite in2="hardAlpha" operator="out"/>
<feColorMatrix type="matrix" values="0 0 0 0 0.945098 0 0 0 0 0.945098 0 0 0 0 0.945098 0 0 0 0.7 0"/>
<feBlend mode="normal" in2="effect1_dropShadow_125_380" result="effect2_dropShadow_125_380"/>
<feBlend mode="normal" in="SourceGraphic" in2="effect2_dropShadow_125_380" result="shape"/>
</filter>
</defs>
</svg>
