<svg preserveAspectRatio="none" width="100%" height="100%" overflow="visible" style="display: block;" viewBox="0 0 43 43" fill="none" xmlns="http://www.w3.org/2000/svg">
<g id="li:volume-off" filter="url(#filter0_d_1_584)">
<path id="Vector" fill-rule="evenodd" clip-rule="evenodd" d="M26.0473 16.1422C26.5938 15.7323 27.369 15.843 27.7789 16.3894C28.5275 17.3873 29.0125 18.5578 29.1889 19.7927C29.2856 20.469 28.8158 21.0955 28.1395 21.1921C27.4633 21.2888 26.8368 20.8189 26.7401 20.1427C26.6225 19.3194 26.2992 18.5391 25.8001 17.8739C25.3902 17.3274 25.5009 16.5522 26.0473 16.1422Z" fill="var(--fill-0, white)"/>
<path id="Vector_2" fill-rule="evenodd" clip-rule="evenodd" d="M30.0751 12.0968C30.558 11.6136 31.3411 11.6134 31.8243 12.0963C35.3865 15.6565 36.4315 21.1668 34.4202 25.784C34.1474 26.4103 33.4186 26.6968 32.7924 26.424C32.1661 26.1512 31.8796 25.4224 32.1524 24.7961C33.7575 21.1114 32.9184 16.6871 30.0756 13.846C29.5924 13.3631 29.5922 12.58 30.0751 12.0968Z" fill="var(--fill-0, white)"/>
<path id="Vector_3" fill-rule="evenodd" clip-rule="evenodd" d="M8.5991 7.5991C9.08212 7.11609 9.86525 7.11609 10.3483 7.5991L35.0851 32.3359C35.5681 32.819 35.5681 33.6021 35.0851 34.0851C34.6021 34.5681 33.819 34.5681 33.3359 34.0851L8.5991 9.34826C8.11609 8.86525 8.11609 8.08212 8.5991 7.5991Z" fill="var(--fill-0, white)"/>
<path id="Vector_4" fill-rule="evenodd" clip-rule="evenodd" d="M16.5325 13.7833C17.0155 14.2663 17.0155 15.0495 16.5325 15.5325C16.4895 15.5755 16.4381 15.6288 16.38 15.6892C16.165 15.9123 15.8585 16.2305 15.5484 16.4695C15.0972 16.8172 14.4895 17.1334 13.6972 17.1316H10.7181C10.7181 17.1316 10.718 17.1317 10.7179 17.1318L10.7177 17.1319L10.7176 17.132L10.7174 17.1321L10.7173 17.1322C10.7172 17.1323 10.7171 17.1324 10.717 17.1325C10.7169 17.1326 10.7168 17.1327 10.7166 17.1328C10.7165 17.1328 10.7164 17.1329 10.7163 17.133C10.7162 17.1331 10.7161 17.1332 10.716 17.1333L10.7158 17.1335L10.7157 17.1336C10.7156 17.1337 10.7155 17.1338 10.7154 17.1339C10.7152 17.134 10.7151 17.1341 10.715 17.1342C10.7149 17.1343 10.7148 17.1344 10.7147 17.1345C10.7146 17.1346 10.7145 17.1347 10.7144 17.1348C10.7143 17.1349 10.7142 17.135 10.7141 17.1351C10.714 17.1352 10.7139 17.1352 10.7139 17.1353L10.7137 17.1354C10.7136 17.1355 10.7135 17.1356 10.7134 17.1358C10.7133 17.1359 10.7132 17.136 10.7131 17.1361C10.713 17.1362 10.7129 17.1363 10.7128 17.1364C10.7127 17.1365 10.7126 17.1366 10.7125 17.1367C10.7124 17.1368 10.7123 17.1369 10.7122 17.1371C10.7122 17.1372 10.7121 17.1373 10.712 17.1374C10.7119 17.1375 10.7118 17.1376 10.7117 17.1377C10.7116 17.1378 10.7115 17.1379 10.7114 17.138C10.7114 17.1381 10.7113 17.1382 10.7112 17.1383C10.7111 17.1384 10.711 17.1385 10.711 17.1386C10.7109 17.1387 10.7108 17.1388 10.7107 17.1389C10.7107 17.139 10.7106 17.1391 10.7105 17.1392V24.545L10.7107 24.5453L10.711 24.5456L10.7112 24.5459L10.7114 24.5462L10.7117 24.5465L10.712 24.5468L10.7122 24.5472L10.7125 24.5475L10.7128 24.5478L10.7131 24.5481L10.7134 24.5485L10.7137 24.5488L10.7141 24.5491L10.7144 24.5494L10.7147 24.5497L10.7149 24.5499L10.715 24.55C10.7151 24.5501 10.7152 24.5502 10.7154 24.5503C10.7155 24.5504 10.7156 24.5505 10.7157 24.5506L10.716 24.5509L10.7163 24.5512L10.7166 24.5515L10.717 24.5517L10.7173 24.552L10.7176 24.5522C10.7177 24.5523 10.7177 24.5523 10.7178 24.5524L10.7179 24.5524L10.7181 24.5526H13.697C14.4857 24.5508 15.2512 24.8679 15.8077 25.4269C15.8081 25.4274 15.8086 25.4279 15.8091 25.4283L19.3684 28.9887V19.6053C19.3684 18.9222 19.9222 18.3684 20.6053 18.3684C21.2884 18.3684 21.8421 18.9222 21.8421 19.6053V29.8686C21.8433 31.7319 19.5584 32.6787 18.2414 31.3602C18.2413 31.3602 18.2413 31.3601 18.2412 31.36C18.241 31.3599 18.2409 31.3597 18.2407 31.3595L14.0572 27.1747C14.0563 27.1739 14.0555 27.1731 14.0547 27.1723C13.9638 27.0808 13.8313 27.0259 13.7024 27.0263C13.7012 27.0263 13.6999 27.0263 13.6987 27.0263H10.7105C9.35377 27.0263 8.23684 25.9094 8.23684 24.5526V17.1316C8.23684 15.7748 9.35377 14.6579 10.7105 14.6579H13.6987C13.6999 14.6579 13.7012 14.6579 13.7024 14.6579C13.7827 14.6581 13.8706 14.6395 14.0385 14.5101C14.1304 14.4393 14.2316 14.3461 14.3587 14.2183C14.4203 14.1563 14.4821 14.0924 14.5516 14.0204L14.5571 14.0147C14.6265 13.9428 14.7037 13.8629 14.7833 13.7833C15.2663 13.3003 16.0495 13.3003 16.5325 13.7833Z" fill="var(--fill-0, white)"/>
<path id="Vector_5" fill-rule="evenodd" clip-rule="evenodd" d="M19.3728 12.378C19.3706 12.448 19.3686 12.5279 19.3686 12.6086C19.3686 13.2917 19.9223 13.8455 20.6054 13.8455C21.2885 13.8455 21.8423 13.2917 21.8423 12.6086C21.8423 12.5292 21.8441 12.4809 21.8465 12.4193C21.8487 12.3607 21.8514 12.29 21.8534 12.1689C21.8564 11.9876 21.8546 11.7418 21.8133 11.4833C21.7238 10.922 21.4164 10.189 20.5543 9.83224C19.7772 9.51067 18.8731 9.69157 18.2796 10.2874C17.7975 10.7713 17.799 11.5544 18.2829 12.0365C18.5798 12.3323 18.9893 12.446 19.3728 12.378ZM19.3675 11.8573C19.3675 11.8573 19.3677 11.8579 19.368 11.8593C19.3676 11.858 19.3675 11.8573 19.3675 11.8573Z" fill="var(--fill-0, white)"/>
</g>
<defs>
<filter id="filter0_d_1_584" x="-0.421053" y="-0.596492" width="44.5263" height="44.5263" filterUnits="userSpaceOnUse" color-interpolation-filters="sRGB">
<feFlood flood-opacity="0" result="BackgroundImageFix"/>
<feColorMatrix in="SourceAlpha" type="matrix" values="0 0 0 0 0 0 0 0 0 0 0 0 0 0 0 0 0 0 127 0" result="hardAlpha"/>
<feOffset dy="0.824561"/>
<feGaussianBlur stdDeviation="3.71053"/>
<feComposite in2="hardAlpha" operator="out"/>
<feColorMatrix type="matrix" values="0 0 0 0 1 0 0 0 0 1 0 0 0 0 1 0 0 0 0.75 0"/>
<feBlend mode="normal" in2="BackgroundImageFix" result="effect1_dropShadow_1_584"/>
<feBlend mode="normal" in="SourceGraphic" in2="effect1_dropShadow_1_584" result="shape"/>
</filter>
</defs>
</svg>
