<svg width="114" height="18" viewBox="0 0 114 18" fill="none" xmlns="http://www.w3.org/2000/svg">
<path d="M10.8638 2.64C10.9491 2.98133 10.9918 3.408 10.9918 3.92C10.9918 4.41067 10.9491 4.83733 10.8638 5.2C10.9491 5.54133 10.9918 5.968 10.9918 6.48C10.9918 6.97067 10.9491 7.39733 10.8638 7.76C10.9491 8.10133 10.9918 8.528 10.9918 9.04C10.9918 9.53067 10.9491 9.95733 10.8638 10.32C10.9491 10.6613 10.9918 11.088 10.9918 11.6C10.9918 12.0907 10.9491 12.5173 10.8638 12.88C10.9491 13.2213 10.9918 13.648 10.9918 14.16C10.9918 14.6507 10.9491 15.0773 10.8638 15.44C10.9491 15.7813 10.9918 16.208 10.9918 16.72C10.9918 17.2107 10.9491 17.6373 10.8638 18H8.30375C8.21842 17.6373 8.17575 17.2107 8.17575 16.72C8.17575 16.208 8.21842 15.7813 8.30375 15.44C8.21842 15.0773 8.17575 14.6507 8.17575 14.16C8.17575 13.648 8.21842 13.2213 8.30375 12.88C8.21842 12.5173 8.17575 12.0907 8.17575 11.6C8.17575 11.088 8.21842 10.6613 8.30375 10.32C8.21842 9.95733 8.17575 9.53067 8.17575 9.04C8.17575 8.528 8.21842 8.10133 8.30375 7.76C8.21842 7.39733 8.17575 6.97067 8.17575 6.48C8.17575 5.968 8.21842 5.54133 8.30375 5.2H7.34375C7.42908 5.54133 7.47175 5.968 7.47175 6.48C7.47175 6.97067 7.42908 7.39733 7.34375 7.76C7.42908 8.10133 7.47175 8.528 7.47175 9.04C7.47175 9.53067 7.42908 9.95733 7.34375 10.32H6.70375C6.78908 10.6613 6.83175 11.088 6.83175 11.6C6.83175 12.0907 6.78908 12.5173 6.70375 12.88C6.78908 13.2213 6.83175 13.648 6.83175 14.16C6.83175 14.6507 6.78908 15.0773 6.70375 15.44H4.78375C4.69842 15.0773 4.65575 14.6507 4.65575 14.16C4.65575 13.648 4.69842 13.2213 4.78375 12.88C4.69842 12.5173 4.65575 12.0907 4.65575 11.6C4.65575 11.088 4.69842 10.6613 4.78375 10.32H4.14375C4.05842 9.95733 4.01575 9.53067 4.01575 9.04C4.01575 8.528 4.05842 8.10133 4.14375 7.76C4.05842 7.39733 4.01575 6.97067 4.01575 6.48C4.01575 5.968 4.05842 5.54133 4.14375 5.2H3.18375C3.26908 5.54133 3.31175 5.968 3.31175 6.48C3.31175 6.97067 3.26908 7.39733 3.18375 7.76C3.26908 8.10133 3.31175 8.528 3.31175 9.04C3.31175 9.53067 3.26908 9.95733 3.18375 10.32C3.26908 10.6613 3.31175 11.088 3.31175 11.6C3.31175 12.0907 3.26908 12.5173 3.18375 12.88C3.26908 13.2213 3.31175 13.648 3.31175 14.16C3.31175 14.6507 3.26908 15.0773 3.18375 15.44C3.26908 15.7813 3.31175 16.208 3.31175 16.72C3.31175 17.2107 3.26908 17.6373 3.18375 18H0.62375C0.538417 17.6373 0.49575 17.2107 0.49575 16.72C0.49575 16.208 0.538417 15.7813 0.62375 15.44C0.538417 15.0773 0.49575 14.6507 0.49575 14.16C0.49575 13.648 0.538417 13.2213 0.62375 12.88C0.538417 12.5173 0.49575 12.0907 0.49575 11.6C0.49575 11.088 0.538417 10.6613 0.62375 10.32C0.538417 9.95733 0.49575 9.53067 0.49575 9.04C0.49575 8.528 0.538417 8.10133 0.62375 7.76C0.538417 7.39733 0.49575 6.97067 0.49575 6.48C0.49575 5.968 0.538417 5.54133 0.62375 5.2C0.538417 4.83733 0.49575 4.41067 0.49575 3.92C0.49575 3.408 0.538417 2.98133 0.62375 2.64C0.538417 2.27733 0.49575 1.85067 0.49575 1.36C0.49575 0.847999 0.538417 0.421333 0.62375 0.0799999H3.82375C3.90908 0.421333 3.95175 0.847999 3.95175 1.36C3.95175 1.85067 3.90908 2.27733 3.82375 2.64H4.78375C4.86908 2.98133 4.91175 3.408 4.91175 3.92C4.91175 4.41067 4.86908 4.83733 4.78375 5.2H5.26375C5.34908 5.54133 5.39175 5.968 5.39175 6.48C5.39175 6.97067 5.34908 7.39733 5.26375 7.76H6.22375C6.13842 7.39733 6.09575 6.97067 6.09575 6.48C6.09575 5.968 6.13842 5.54133 6.22375 5.2H6.70375C6.61842 4.83733 6.57575 4.41067 6.57575 3.92C6.57575 3.408 6.61842 2.98133 6.70375 2.64H7.66375C7.57842 2.27733 7.53575 1.85067 7.53575 1.36C7.53575 0.847999 7.57842 0.421333 7.66375 0.0799999H10.8638C10.9491 0.421333 10.9918 0.847999 10.9918 1.36C10.9918 1.85067 10.9491 2.27733 10.8638 2.64ZM17.2763 10.32C17.3616 10.6613 17.4043 11.088 17.4043 11.6C17.4043 12.0907 17.3616 12.5173 17.2763 12.88C17.3616 13.2213 17.4043 13.648 17.4043 14.16C17.4043 14.6507 17.3616 15.0773 17.2763 15.44H22.3963C22.4816 15.7813 22.5243 16.208 22.5243 16.72C22.5243 17.2107 22.4816 17.6373 22.3963 18H14.7163C14.6309 17.6373 14.5883 17.2107 14.5883 16.72C14.5883 16.208 14.6309 15.7813 14.7163 15.44C14.6309 15.0773 14.5883 14.6507 14.5883 14.16C14.5883 13.648 14.6309 13.2213 14.7163 12.88C14.6309 12.5173 14.5883 12.0907 14.5883 11.6C14.5883 11.088 14.6309 10.6613 14.7163 10.32C14.6309 9.95733 14.5883 9.53067 14.5883 9.04C14.5883 8.528 14.6309 8.10133 14.7163 7.76C14.6309 7.39733 14.5883 6.97067 14.5883 6.48C14.5883 5.968 14.6309 5.54133 14.7163 5.2C14.6309 4.83733 14.5883 4.41067 14.5883 3.92C14.5883 3.408 14.6309 2.98133 14.7163 2.64C14.6309 2.27733 14.5883 1.85067 14.5883 1.36C14.5883 0.847999 14.6309 0.421333 14.7163 0.0799999H22.3963C22.4816 0.421333 22.5243 0.847999 22.5243 1.36C22.5243 1.85067 22.4816 2.27733 22.3963 2.64H17.2763C17.3616 2.98133 17.4043 3.408 17.4043 3.92C17.4043 4.41067 17.3616 4.83733 17.2763 5.2C17.3616 5.54133 17.4043 5.968 17.4043 6.48C17.4043 6.97067 17.3616 7.39733 17.2763 7.76H22.3963C22.4816 8.10133 22.5243 8.528 22.5243 9.04C22.5243 9.53067 22.4816 9.95733 22.3963 10.32H17.2763ZM36.6168 1.36C36.6168 1.85067 36.5741 2.27733 36.4888 2.64H32.6488C32.7341 2.98133 32.7768 3.408 32.7768 3.92C32.7768 4.41067 32.7341 4.83733 32.6488 5.2C32.7341 5.54133 32.7768 5.968 32.7768 6.48C32.7768 6.97067 32.7341 7.39733 32.6488 7.76C32.7341 8.10133 32.7768 8.528 32.7768 9.04C32.7768 9.53067 32.7341 9.95733 32.6488 10.32C32.7341 10.6613 32.7768 11.088 32.7768 11.6C32.7768 12.0907 32.7341 12.5173 32.6488 12.88C32.7341 13.2213 32.7768 13.648 32.7768 14.16C32.7768 14.6507 32.7341 15.0773 32.6488 15.44C32.7341 15.7813 32.7768 16.208 32.7768 16.72C32.7768 17.2107 32.7341 17.6373 32.6488 18H30.0888C30.0034 17.6373 29.9608 17.2107 29.9608 16.72C29.9608 16.208 30.0034 15.7813 30.0888 15.44C30.0034 15.0773 29.9608 14.6507 29.9608 14.16C29.9608 13.648 30.0034 13.2213 30.0888 12.88C30.0034 12.5173 29.9608 12.0907 29.9608 11.6C29.9608 11.088 30.0034 10.6613 30.0888 10.32C30.0034 9.95733 29.9608 9.53067 29.9608 9.04C29.9608 8.528 30.0034 8.10133 30.0888 7.76C30.0034 7.39733 29.9608 6.97067 29.9608 6.48C29.9608 5.968 30.0034 5.54133 30.0888 5.2C30.0034 4.83733 29.9608 4.41067 29.9608 3.92C29.9608 3.408 30.0034 2.98133 30.0888 2.64H26.2488C26.1634 2.27733 26.1208 1.85067 26.1208 1.36C26.1208 0.847999 26.1634 0.421333 26.2488 0.0799999H36.4888C36.5741 0.421333 36.6168 0.847999 36.6168 1.36ZM49.4293 14.16C49.4293 14.6507 49.3866 15.0773 49.3013 15.44C49.3866 15.7813 49.4293 16.208 49.4293 16.72C49.4293 17.2107 49.3866 17.6373 49.3013 18H46.7413C46.6559 17.6373 46.6133 17.2107 46.6133 16.72C46.6133 16.208 46.6559 15.7813 46.7413 15.44C46.6559 15.0773 46.6133 14.6507 46.6133 14.16C46.6133 13.648 46.6559 13.2213 46.7413 12.88H41.6213C41.7066 13.2213 41.7493 13.648 41.7493 14.16C41.7493 14.6507 41.7066 15.0773 41.6213 15.44C41.7066 15.7813 41.7493 16.208 41.7493 16.72C41.7493 17.2107 41.7066 17.6373 41.6213 18H39.0613C38.9759 17.6373 38.9333 17.2107 38.9333 16.72C38.9333 16.208 38.9759 15.7813 39.0613 15.44C38.9759 15.0773 38.9333 14.6507 38.9333 14.16C38.9333 13.648 38.9759 13.2213 39.0613 12.88H40.0213C39.9359 12.5173 39.8932 12.0907 39.8932 11.6C39.8932 11.088 39.9359 10.6613 40.0213 10.32C39.9359 9.95733 39.8932 9.53067 39.8932 9.04C39.8932 8.528 39.9359 8.10133 40.0213 7.76H40.6613C40.5759 7.39733 40.5333 6.97067 40.5333 6.48C40.5333 5.968 40.5759 5.54133 40.6613 5.2H41.6213C41.5359 4.83733 41.4933 4.41067 41.4933 3.92C41.4933 3.408 41.5359 2.98133 41.6213 2.64H42.2613C42.1759 2.27733 42.1333 1.85067 42.1333 1.36C42.1333 0.847999 42.1759 0.421333 42.2613 0.0799999H46.1013C46.1866 0.421333 46.2292 0.847999 46.2292 1.36C46.2292 1.85067 46.1866 2.27733 46.1013 2.64H46.7413C46.8266 2.98133 46.8693 3.408 46.8693 3.92C46.8693 4.41067 46.8266 4.83733 46.7413 5.2H47.7013C47.7866 5.54133 47.8293 5.968 47.8293 6.48C47.8293 6.97067 47.7866 7.39733 47.7013 7.76H48.3413C48.4266 8.10133 48.4693 8.528 48.4693 9.04C48.4693 9.53067 48.4266 9.95733 48.3413 10.32C48.4266 10.6613 48.4693 11.088 48.4693 11.6C48.4693 12.0907 48.4266 12.5173 48.3413 12.88H49.3013C49.3866 13.2213 49.4293 13.648 49.4293 14.16ZM45.7812 10.32C45.6959 9.95733 45.6533 9.53067 45.6533 9.04C45.6533 8.528 45.6959 8.10133 45.7812 7.76H45.1413C45.0559 7.39733 45.0133 6.97067 45.0133 6.48C45.0133 5.968 45.0559 5.54133 45.1413 5.2H43.2213C43.3066 5.54133 43.3493 5.968 43.3493 6.48C43.3493 6.97067 43.3066 7.39733 43.2213 7.76H42.5813C42.6666 8.10133 42.7093 8.528 42.7093 9.04C42.7093 9.53067 42.6666 9.95733 42.5813 10.32H45.7812ZM74.9263 2.64C75.0116 2.98133 75.0543 3.408 75.0543 3.92C75.0543 4.41067 75.0116 4.83733 74.9263 5.2C75.0116 5.54133 75.0543 5.968 75.0543 6.48C75.0543 6.97067 75.0116 7.39733 74.9263 7.76C75.0116 8.10133 75.0543 8.528 75.0543 9.04C75.0543 9.53067 75.0116 9.95733 74.9263 10.32C75.0116 10.6613 75.0543 11.088 75.0543 11.6C75.0543 12.0907 75.0116 12.5173 74.9263 12.88C75.0116 13.2213 75.0543 13.648 75.0543 14.16C75.0543 14.6507 75.0116 15.0773 74.9263 15.44C75.0116 15.7813 75.0543 16.208 75.0543 16.72C75.0543 17.2107 75.0116 17.6373 74.9263 18H72.3663C72.2809 17.6373 72.2383 17.2107 72.2383 16.72C72.2383 16.208 72.2809 15.7813 72.3663 15.44C72.2809 15.0773 72.2383 14.6507 72.2383 14.16C72.2383 13.648 72.2809 13.2213 72.3663 12.88C72.2809 12.5173 72.2383 12.0907 72.2383 11.6C72.2383 11.088 72.2809 10.6613 72.3663 10.32C72.2809 9.95733 72.2383 9.53067 72.2383 9.04C72.2383 8.528 72.2809 8.10133 72.3663 7.76C72.2809 7.39733 72.2383 6.97067 72.2383 6.48C72.2383 5.968 72.2809 5.54133 72.3663 5.2H71.4062C71.4916 5.54133 71.5343 5.968 71.5343 6.48C71.5343 6.97067 71.4916 7.39733 71.4062 7.76C71.4916 8.10133 71.5343 8.528 71.5343 9.04C71.5343 9.53067 71.4916 9.95733 71.4062 10.32H70.7663C70.8516 10.6613 70.8943 11.088 70.8943 11.6C70.8943 12.0907 70.8516 12.5173 70.7663 12.88C70.8516 13.2213 70.8943 13.648 70.8943 14.16C70.8943 14.6507 70.8516 15.0773 70.7663 15.44H68.8463C68.7609 15.0773 68.7183 14.6507 68.7183 14.16C68.7183 13.648 68.7609 13.2213 68.8463 12.88C68.7609 12.5173 68.7183 12.0907 68.7183 11.6C68.7183 11.088 68.7609 10.6613 68.8463 10.32H68.2063C68.1209 9.95733 68.0783 9.53067 68.0783 9.04C68.0783 8.528 68.1209 8.10133 68.2063 7.76C68.1209 7.39733 68.0783 6.97067 68.0783 6.48C68.0783 5.968 68.1209 5.54133 68.2063 5.2H67.2463C67.3316 5.54133 67.3743 5.968 67.3743 6.48C67.3743 6.97067 67.3316 7.39733 67.2463 7.76C67.3316 8.10133 67.3743 8.528 67.3743 9.04C67.3743 9.53067 67.3316 9.95733 67.2463 10.32C67.3316 10.6613 67.3743 11.088 67.3743 11.6C67.3743 12.0907 67.3316 12.5173 67.2463 12.88C67.3316 13.2213 67.3743 13.648 67.3743 14.16C67.3743 14.6507 67.3316 15.0773 67.2463 15.44C67.3316 15.7813 67.3743 16.208 67.3743 16.72C67.3743 17.2107 67.3316 17.6373 67.2463 18H64.6863C64.6009 17.6373 64.5583 17.2107 64.5583 16.72C64.5583 16.208 64.6009 15.7813 64.6863 15.44C64.6009 15.0773 64.5583 14.6507 64.5583 14.16C64.5583 13.648 64.6009 13.2213 64.6863 12.88C64.6009 12.5173 64.5583 12.0907 64.5583 11.6C64.5583 11.088 64.6009 10.6613 64.6863 10.32C64.6009 9.95733 64.5583 9.53067 64.5583 9.04C64.5583 8.528 64.6009 8.10133 64.6863 7.76C64.6009 7.39733 64.5583 6.97067 64.5583 6.48C64.5583 5.968 64.6009 5.54133 64.6863 5.2C64.6009 4.83733 64.5583 4.41067 64.5583 3.92C64.5583 3.408 64.6009 2.98133 64.6863 2.64C64.6009 2.27733 64.5583 1.85067 64.5583 1.36C64.5583 0.847999 64.6009 0.421333 64.6863 0.0799999H67.8863C67.9716 0.421333 68.0143 0.847999 68.0143 1.36C68.0143 1.85067 67.9716 2.27733 67.8863 2.64H68.8463C68.9316 2.98133 68.9743 3.408 68.9743 3.92C68.9743 4.41067 68.9316 4.83733 68.8463 5.2H69.3263C69.4116 5.54133 69.4543 5.968 69.4543 6.48C69.4543 6.97067 69.4116 7.39733 69.3263 7.76H70.2863C70.2009 7.39733 70.1583 6.97067 70.1583 6.48C70.1583 5.968 70.2009 5.54133 70.2863 5.2H70.7663C70.6809 4.83733 70.6383 4.41067 70.6383 3.92C70.6383 3.408 70.6809 2.98133 70.7663 2.64H71.7263C71.6409 2.27733 71.5983 1.85067 71.5983 1.36C71.5983 0.847999 71.6409 0.421333 71.7263 0.0799999H74.9263C75.0116 0.421333 75.0543 0.847999 75.0543 1.36C75.0543 1.85067 75.0116 2.27733 74.9263 2.64ZM87.8668 14.16C87.8668 14.6507 87.8241 15.0773 87.7388 15.44C87.8241 15.7813 87.8668 16.208 87.8668 16.72C87.8668 17.2107 87.8241 17.6373 87.7388 18H85.1788C85.0934 17.6373 85.0508 17.2107 85.0508 16.72C85.0508 16.208 85.0934 15.7813 85.1788 15.44C85.0934 15.0773 85.0508 14.6507 85.0508 14.16C85.0508 13.648 85.0934 13.2213 85.1788 12.88H80.0588C80.1441 13.2213 80.1868 13.648 80.1868 14.16C80.1868 14.6507 80.1441 15.0773 80.0588 15.44C80.1441 15.7813 80.1868 16.208 80.1868 16.72C80.1868 17.2107 80.1441 17.6373 80.0588 18H77.4988C77.4134 17.6373 77.3708 17.2107 77.3708 16.72C77.3708 16.208 77.4134 15.7813 77.4988 15.44C77.4134 15.0773 77.3708 14.6507 77.3708 14.16C77.3708 13.648 77.4134 13.2213 77.4988 12.88H78.4588C78.3734 12.5173 78.3307 12.0907 78.3307 11.6C78.3307 11.088 78.3734 10.6613 78.4588 10.32C78.3734 9.95733 78.3307 9.53067 78.3307 9.04C78.3307 8.528 78.3734 8.10133 78.4588 7.76H79.0988C79.0134 7.39733 78.9708 6.97067 78.9708 6.48C78.9708 5.968 79.0134 5.54133 79.0988 5.2H80.0588C79.9734 4.83733 79.9308 4.41067 79.9308 3.92C79.9308 3.408 79.9734 2.98133 80.0588 2.64H80.6988C80.6134 2.27733 80.5708 1.85067 80.5708 1.36C80.5708 0.847999 80.6134 0.421333 80.6988 0.0799999H84.5388C84.6241 0.421333 84.6667 0.847999 84.6667 1.36C84.6667 1.85067 84.6241 2.27733 84.5388 2.64H85.1788C85.2641 2.98133 85.3068 3.408 85.3068 3.92C85.3068 4.41067 85.2641 4.83733 85.1788 5.2H86.1388C86.2241 5.54133 86.2668 5.968 86.2668 6.48C86.2668 6.97067 86.2241 7.39733 86.1388 7.76H86.7788C86.8641 8.10133 86.9068 8.528 86.9068 9.04C86.9068 9.53067 86.8641 9.95733 86.7788 10.32C86.8641 10.6613 86.9068 11.088 86.9068 11.6C86.9068 12.0907 86.8641 12.5173 86.7788 12.88H87.7388C87.8241 13.2213 87.8668 13.648 87.8668 14.16ZM84.2188 10.32C84.1334 9.95733 84.0908 9.53067 84.0908 9.04C84.0908 8.528 84.1334 8.10133 84.2188 7.76H83.5788C83.4934 7.39733 83.4508 6.97067 83.4508 6.48C83.4508 5.968 83.4934 5.54133 83.5788 5.2H81.6588C81.7441 5.54133 81.7868 5.968 81.7868 6.48C81.7868 6.97067 81.7441 7.39733 81.6588 7.76H81.0188C81.1041 8.10133 81.1468 8.528 81.1468 9.04C81.1468 9.53067 81.1041 9.95733 81.0188 10.32H84.2188ZM100.551 10.32C100.637 10.6613 100.679 11.088 100.679 11.6C100.679 12.0907 100.637 12.5173 100.551 12.88C100.637 13.2213 100.679 13.648 100.679 14.16C100.679 14.6507 100.637 15.0773 100.551 15.44H99.2713C99.3566 15.7813 99.3993 16.208 99.3993 16.72C99.3993 17.2107 99.3566 17.6373 99.2713 18H91.5913C91.5059 17.6373 91.4633 17.2107 91.4633 16.72C91.4633 16.208 91.5059 15.7813 91.5913 15.44H90.3113C90.2259 15.0773 90.1833 14.6507 90.1833 14.16C90.1833 13.648 90.2259 13.2213 90.3113 12.88H92.8713C92.9566 13.2213 92.9993 13.648 92.9993 14.16C92.9993 14.6507 92.9566 15.0773 92.8713 15.44H97.9913C97.9059 15.0773 97.8633 14.6507 97.8633 14.16C97.8633 13.648 97.9059 13.2213 97.9913 12.88C97.9059 12.5173 97.8633 12.0907 97.8633 11.6C97.8633 11.088 97.9059 10.6613 97.9913 10.32H91.5913C91.5059 9.95733 91.4633 9.53067 91.4633 9.04C91.4633 8.528 91.5059 8.10133 91.5913 7.76H90.3113C90.2259 7.39733 90.1833 6.97067 90.1833 6.48C90.1833 5.968 90.2259 5.54133 90.3113 5.2C90.2259 4.83733 90.1833 4.41067 90.1833 3.92C90.1833 3.408 90.2259 2.98133 90.3113 2.64H91.5913C91.5059 2.27733 91.4633 1.85067 91.4633 1.36C91.4633 0.847999 91.5059 0.421333 91.5913 0.0799999H99.2713C99.3566 0.421333 99.3993 0.847999 99.3993 1.36C99.3993 1.85067 99.3566 2.27733 99.2713 2.64H100.551C100.637 2.98133 100.679 3.408 100.679 3.92C100.679 4.41067 100.637 4.83733 100.551 5.2H97.9913C97.9059 4.83733 97.8633 4.41067 97.8633 3.92C97.8633 3.408 97.9059 2.98133 97.9913 2.64H92.8713C92.9566 2.98133 92.9993 3.408 92.9993 3.92C92.9993 4.41067 92.9566 4.83733 92.8713 5.2C92.9566 5.54133 92.9993 5.968 92.9993 6.48C92.9993 6.97067 92.9566 7.39733 92.8713 7.76H99.2713C99.3566 8.10133 99.3993 8.528 99.3993 9.04C99.3993 9.53067 99.3566 9.95733 99.2713 10.32H100.551ZM113.364 15.44C113.449 15.7813 113.492 16.208 113.492 16.72C113.492 17.2107 113.449 17.6373 113.364 18H110.804C110.718 17.6373 110.676 17.2107 110.676 16.72C110.676 16.208 110.718 15.7813 110.804 15.44H109.844C109.758 15.0773 109.716 14.6507 109.716 14.16C109.716 13.648 109.758 13.2213 109.844 12.88H107.924C107.838 12.5173 107.796 12.0907 107.796 11.6C107.796 11.088 107.838 10.6613 107.924 10.32H105.684C105.769 10.6613 105.812 11.088 105.812 11.6C105.812 12.0907 105.769 12.5173 105.684 12.88C105.769 13.2213 105.812 13.648 105.812 14.16C105.812 14.6507 105.769 15.0773 105.684 15.44C105.769 15.7813 105.812 16.208 105.812 16.72C105.812 17.2107 105.769 17.6373 105.684 18H103.124C103.038 17.6373 102.996 17.2107 102.996 16.72C102.996 16.208 103.038 15.7813 103.124 15.44C103.038 15.0773 102.996 14.6507 102.996 14.16C102.996 13.648 103.038 13.2213 103.124 12.88C103.038 12.5173 102.996 12.0907 102.996 11.6C102.996 11.088 103.038 10.6613 103.124 10.32C103.038 9.95733 102.996 9.53067 102.996 9.04C102.996 8.528 103.038 8.10133 103.124 7.76C103.038 7.39733 102.996 6.97067 102.996 6.48C102.996 5.968 103.038 5.54133 103.124 5.2C103.038 4.83733 102.996 4.41067 102.996 3.92C102.996 3.408 103.038 2.98133 103.124 2.64C103.038 2.27733 102.996 1.85067 102.996 1.36C102.996 0.847999 103.038 0.421333 103.124 0.0799999H105.684C105.769 0.421333 105.812 0.847999 105.812 1.36C105.812 1.85067 105.769 2.27733 105.684 2.64C105.769 2.98133 105.812 3.408 105.812 3.92C105.812 4.41067 105.769 4.83733 105.684 5.2C105.769 5.54133 105.812 5.968 105.812 6.48C105.812 6.97067 105.769 7.39733 105.684 7.76H107.924C107.838 7.39733 107.796 6.97067 107.796 6.48C107.796 5.968 107.838 5.54133 107.924 5.2H109.844C109.758 4.83733 109.716 4.41067 109.716 3.92C109.716 3.408 109.758 2.98133 109.844 2.64H110.804C110.718 2.27733 110.676 1.85067 110.676 1.36C110.676 0.847999 110.718 0.421333 110.804 0.0799999H113.364C113.449 0.421333 113.492 0.847999 113.492 1.36C113.492 1.85067 113.449 2.27733 113.364 2.64H112.404C112.489 2.98133 112.532 3.408 112.532 3.92C112.532 4.41067 112.489 4.83733 112.404 5.2H110.484C110.569 5.54133 110.612 5.968 110.612 6.48C110.612 6.97067 110.569 7.39733 110.484 7.76H108.884C108.969 8.10133 109.012 8.528 109.012 9.04C109.012 9.53067 108.969 9.95733 108.884 10.32H110.484C110.569 10.6613 110.612 11.088 110.612 11.6C110.612 12.0907 110.569 12.5173 110.484 12.88H112.404C112.489 13.2213 112.532 13.648 112.532 14.16C112.532 14.6507 112.489 15.0773 112.404 15.44H113.364Z" fill="#F1F1F1"/>
</svg>
