<svg width="102" height="97" viewBox="0 0 102 97" fill="none" xmlns="http://www.w3.org/2000/svg">
<path fill-rule="evenodd" clip-rule="evenodd" d="M25.0337 3.44436C25.0337 6.36359 24.9718 6.39655 18.7918 6.69017C12.8454 6.97381 12.5348 7.11562 12.2392 9.67333C11.9995 11.7497 11.3194 12.4298 9.24309 12.6695C7.02195 12.9261 6.50362 13.5413 6.24495 16.2259C5.96931 19.0802 5.57781 19.4717 2.99914 19.4717H0.065918V41.9427V64.4138H3.06206C5.72562 64.4138 6.0582 64.7463 6.0582 67.4099C6.0582 70.0585 6.39776 70.4061 8.99142 70.4061C11.5701 70.4061 11.9616 70.7975 12.2372 73.6519C12.5119 76.5062 12.9413 76.9356 15.7956 77.2103C18.65 77.4859 19.0415 77.8774 19.0415 80.4561C19.0415 83.0498 19.389 83.3893 22.0376 83.3893C24.6862 83.3893 25.0337 83.7289 25.0337 86.3225C25.0337 88.9012 25.4252 89.2927 28.2796 89.5684C31.1339 89.843 31.5633 90.2724 31.838 93.1268L32.1516 96.3726H51.0632H69.9758V92.8771C69.9758 89.5484 70.1426 89.3816 73.4713 89.3816C76.6892 89.3816 76.9668 89.1439 76.9668 86.3855C76.9668 83.7219 77.2994 83.3893 79.963 83.3893C82.6265 83.3893 82.9591 83.0567 82.9591 80.3932C82.9591 77.7296 83.2917 77.397 85.9552 77.397C88.7137 77.397 88.9514 77.1194 88.9514 73.9016C88.9514 70.5728 89.1181 70.4061 92.4469 70.4061C95.6647 70.4061 95.9424 70.1684 95.9424 67.4099C95.9424 64.7463 96.2749 64.4138 98.9385 64.4138H101.935V41.9427V19.4717H99.0014C96.4227 19.4717 96.0312 19.0802 95.7556 16.2259C95.481 13.3716 95.0515 12.9421 92.1972 12.6675C89.3429 12.3918 88.9514 12.0003 88.9514 9.42165C88.9514 6.50241 88.9224 6.48843 82.9591 6.48843H76.9668V3.49229V0.496155H51.0003H25.0337V3.44436ZM62.9848 48.4344V51.4305H69.4135H75.8413L76.1549 54.6763C76.4155 57.3808 76.9259 57.9751 79.2139 58.2377L81.9604 58.5543V67.4758C81.9604 76.3274 81.9404 76.3983 79.4636 76.3983C77.3553 76.3983 76.9668 75.9319 76.9668 73.4022C76.9668 70.6437 76.6892 70.4061 73.4713 70.4061C70.1426 70.4061 69.9758 70.2393 69.9758 66.9106V63.4151H51.0003H32.0247V66.9106C32.0247 70.2393 31.8579 70.4061 28.5292 70.4061C25.3114 70.4061 25.0337 70.6437 25.0337 73.4022C25.0337 76.0658 24.7012 76.3983 22.0376 76.3983H19.0415V67.4728V58.5483L22.2873 58.2347C25.1416 57.9601 25.571 57.5306 25.8457 54.6763L26.1593 51.4305H32.587H39.0157V48.4344V45.4382H51.0003H62.9848V48.4344ZM44.196 34.6763L45.0659 63.4151H51.0003H57.0659L57.8045 34.6763L57.1181 31.4305L51.0003 28.4305L44.8825 31.4305L44.196 34.6763ZM44.0093 73.4022C44.0093 75.9319 43.6208 76.3983 41.5125 76.3983C39.4042 76.3983 39.0157 75.9319 39.0157 73.4022C39.0157 70.8725 39.4042 70.4061 41.5125 70.4061C43.6208 70.4061 44.0093 70.8725 44.0093 73.4022ZM62.9848 73.4022C62.9848 75.9319 62.5963 76.3983 60.488 76.3983C58.3798 76.3983 57.9913 75.9319 57.9913 73.4022C57.9913 70.8725 58.3798 70.4061 60.488 70.4061C62.5963 70.4061 62.9848 70.8725 62.9848 73.4022ZM38.017 79.8938C38.017 82.0021 37.5506 82.3906 35.0209 82.3906C32.4911 82.3906 32.0247 82.0021 32.0247 79.8938C32.0247 77.7855 32.4911 77.397 35.0209 77.397C37.5506 77.397 38.017 77.7855 38.017 79.8938ZM69.9758 79.8938C69.9758 82.0021 69.5094 82.3906 66.9797 82.3906C64.4499 82.3906 63.9835 82.0021 63.9835 79.8938C63.9835 77.7855 64.4499 77.397 66.9797 77.397C69.5094 77.397 69.9758 77.7855 69.9758 79.8938ZM56.9926 86.3855V89.3816H51.0003H45.008V86.3855L51.0003 83.4962L56.9926 86.3855Z" fill="#F1F1F1"/>
</svg>
